<mxfile host="65bd71144e">
    <diagram id="sED9ADRcN6IbE8D5TVqb" name="Page-1">
        <mxGraphModel dx="1187" dy="793" grid="1" gridSize="10" guides="1" tooltips="1" connect="1" arrows="1" fold="1" page="1" pageScale="1" pageWidth="1169" pageHeight="827" math="0" shadow="0">
            <root>
                <mxCell id="0"/>
                <mxCell id="1" parent="0"/>
                <mxCell id="108" value="&lt;font style=&quot;font-size: 12px&quot;&gt;HAS_INPUT&lt;/font&gt;" style="edgeStyle=none;html=1;fontSize=14;" parent="1" source="110" target="111" edge="1">
                    <mxGeometry relative="1" as="geometry"/>
                </mxCell>
                <mxCell id="109" value="HAS_OUTPUT" style="edgeStyle=none;html=1;fontSize=12;" parent="1" source="110" target="112" edge="1">
                    <mxGeometry relative="1" as="geometry"/>
                </mxCell>
                <mxCell id="143" value="IMPLEMENTED" style="edgeStyle=none;html=1;" parent="1" source="110" target="142" edge="1">
                    <mxGeometry relative="1" as="geometry"/>
                </mxCell>
                <mxCell id="110" value="&lt;font style=&quot;font-size: 14px&quot;&gt;&lt;b&gt;Function&lt;/b&gt;&lt;/font&gt;&lt;br&gt;- name: &quot;unwind&quot;&lt;br&gt;- uuid: &quot;800c7927-69d8-49d9-91ec-ef319c3e11de&quot;" style="ellipse;whiteSpace=wrap;html=1;aspect=fixed;fillColor=#76608a;fontColor=#ffffff;strokeColor=#432D57;" parent="1" vertex="1">
                    <mxGeometry x="280" y="40" width="160" height="160" as="geometry"/>
                </mxCell>
                <mxCell id="111" value="&lt;font style=&quot;font-size: 14px&quot;&gt;&lt;b&gt;Input&lt;/b&gt;&lt;/font&gt;&lt;br&gt;- name: &quot;collection&quot;" style="ellipse;whiteSpace=wrap;html=1;aspect=fixed;fillColor=#76608a;fontColor=#ffffff;strokeColor=#432D57;" parent="1" vertex="1">
                    <mxGeometry x="40" y="60" width="120" height="120" as="geometry"/>
                </mxCell>
                <mxCell id="112" value="&lt;font style=&quot;font-size: 14px&quot;&gt;&lt;b&gt;Output&lt;/b&gt;&lt;/font&gt;&lt;br&gt;- name: &quot;element&quot;" style="ellipse;whiteSpace=wrap;html=1;aspect=fixed;fillColor=#76608a;fontColor=#ffffff;strokeColor=#432D57;" parent="1" vertex="1">
                    <mxGeometry x="560" y="60" width="120" height="120" as="geometry"/>
                </mxCell>
                <mxCell id="142" value="&lt;font style=&quot;font-size: 14px&quot;&gt;&lt;b&gt;NativeCall&lt;/b&gt;&lt;/font&gt;&lt;br&gt;- cypher: &quot;UNWIND collection AS element RETURN element&quot;" style="ellipse;whiteSpace=wrap;html=1;aspect=fixed;fillColor=#6d8764;fontColor=#ffffff;strokeColor=#3A5431;" parent="1" vertex="1">
                    <mxGeometry x="280" y="280" width="160" height="160" as="geometry"/>
                </mxCell>
                <mxCell id="144" value="&lt;font style=&quot;font-size: 12px&quot;&gt;HAS_INPUT&lt;/font&gt;" style="edgeStyle=none;html=1;fontSize=14;" parent="1" source="147" target="148" edge="1">
                    <mxGeometry relative="1" as="geometry"/>
                </mxCell>
                <mxCell id="145" value="HAS_OUTPUT" style="edgeStyle=none;html=1;fontSize=12;" parent="1" source="147" target="149" edge="1">
                    <mxGeometry relative="1" as="geometry"/>
                </mxCell>
                <mxCell id="146" value="IMPLEMENTED" style="edgeStyle=none;html=1;" parent="1" source="147" target="150" edge="1">
                    <mxGeometry relative="1" as="geometry"/>
                </mxCell>
                <mxCell id="152" value="&lt;span style=&quot;font-size: 12px&quot;&gt;HAS_INPUT&lt;/span&gt;" style="edgeStyle=none;html=1;" parent="1" source="147" target="151" edge="1">
                    <mxGeometry relative="1" as="geometry"/>
                </mxCell>
                <mxCell id="154" value="&lt;span style=&quot;font-size: 12px&quot;&gt;HAS_OUTPUT&lt;/span&gt;" style="edgeStyle=none;html=1;" parent="1" source="147" target="153" edge="1">
                    <mxGeometry relative="1" as="geometry"/>
                </mxCell>
                <mxCell id="147" value="&lt;font style=&quot;font-size: 14px&quot;&gt;&lt;b&gt;Function&lt;/b&gt;&lt;/font&gt;&lt;br&gt;- name: &quot;match and filter neighbors&quot;&lt;br&gt;- uuid: &quot;a5df37c1-a9a2-4d30-8dca-b1b9aa0220be&quot;" style="ellipse;whiteSpace=wrap;html=1;aspect=fixed;fillColor=#76608a;fontColor=#ffffff;strokeColor=#432D57;" parent="1" vertex="1">
                    <mxGeometry x="280" y="480" width="160" height="160" as="geometry"/>
                </mxCell>
                <mxCell id="148" value="&lt;font style=&quot;font-size: 14px&quot;&gt;&lt;b&gt;Input&lt;/b&gt;&lt;/font&gt;&lt;br&gt;- name: &quot;node&quot;" style="ellipse;whiteSpace=wrap;html=1;aspect=fixed;fillColor=#76608a;fontColor=#ffffff;strokeColor=#432D57;" parent="1" vertex="1">
                    <mxGeometry x="40" y="500" width="120" height="120" as="geometry"/>
                </mxCell>
                <mxCell id="149" value="&lt;font style=&quot;font-size: 14px&quot;&gt;&lt;b&gt;Output&lt;/b&gt;&lt;/font&gt;&lt;br&gt;- name: &quot;rel&quot;" style="ellipse;whiteSpace=wrap;html=1;aspect=fixed;fillColor=#76608a;fontColor=#ffffff;strokeColor=#432D57;" parent="1" vertex="1">
                    <mxGeometry x="560" y="500" width="120" height="120" as="geometry"/>
                </mxCell>
                <mxCell id="150" value="&lt;font style=&quot;font-size: 14px&quot;&gt;&lt;b&gt;NativeCall&lt;/b&gt;&lt;/font&gt;&lt;br&gt;- cypher: &quot;OPTIONAL MATCH (node)-[rel]-(neighbor) WHERE neighbor IN allowedNodes RETURN rel, neighbor&quot;" style="ellipse;whiteSpace=wrap;html=1;aspect=fixed;fillColor=#6d8764;fontColor=#ffffff;strokeColor=#3A5431;" parent="1" vertex="1">
                    <mxGeometry x="280" y="720" width="160" height="160" as="geometry"/>
                </mxCell>
                <mxCell id="151" value="&lt;font style=&quot;font-size: 14px&quot;&gt;&lt;b&gt;Input&lt;/b&gt;&lt;/font&gt;&lt;br&gt;- name: &quot;allowedNodes&quot;" style="ellipse;whiteSpace=wrap;html=1;aspect=fixed;fillColor=#76608a;fontColor=#ffffff;strokeColor=#432D57;" parent="1" vertex="1">
                    <mxGeometry x="40" y="660" width="120" height="120" as="geometry"/>
                </mxCell>
                <mxCell id="153" value="&lt;font style=&quot;font-size: 14px&quot;&gt;&lt;b&gt;Output&lt;/b&gt;&lt;/font&gt;&lt;br&gt;- name: &quot;neighbor&quot;" style="ellipse;whiteSpace=wrap;html=1;aspect=fixed;fillColor=#76608a;fontColor=#ffffff;strokeColor=#432D57;" parent="1" vertex="1">
                    <mxGeometry x="560" y="660" width="120" height="120" as="geometry"/>
                </mxCell>
                <mxCell id="155" value="&lt;font style=&quot;font-size: 12px&quot;&gt;HAS_INPUT&lt;/font&gt;" style="edgeStyle=none;html=1;fontSize=14;" parent="1" source="160" target="161" edge="1">
                    <mxGeometry relative="1" as="geometry"/>
                </mxCell>
                <mxCell id="157" value="IMPLEMENTED" style="edgeStyle=none;html=1;" parent="1" source="160" target="163" edge="1">
                    <mxGeometry relative="1" as="geometry"/>
                </mxCell>
                <mxCell id="158" value="&lt;span style=&quot;font-size: 12px&quot;&gt;HAS_INPUT&lt;/span&gt;" style="edgeStyle=none;html=1;" parent="1" source="160" target="164" edge="1">
                    <mxGeometry relative="1" as="geometry"/>
                </mxCell>
                <mxCell id="167" value="HAS_INPUT" style="edgeStyle=none;html=1;" parent="1" source="160" target="166" edge="1">
                    <mxGeometry relative="1" as="geometry"/>
                </mxCell>
                <mxCell id="160" value="&lt;font style=&quot;font-size: 14px&quot;&gt;&lt;b&gt;Function&lt;/b&gt;&lt;/font&gt;&lt;br&gt;- name: &quot;export data to cypher&quot;&lt;br&gt;- uuid: &quot;b4d614e2-e9b8-423f-96b8-2cffa3b9ca9a&quot;" style="ellipse;whiteSpace=wrap;html=1;aspect=fixed;fillColor=#76608a;fontColor=#ffffff;strokeColor=#432D57;" parent="1" vertex="1">
                    <mxGeometry x="280" y="920" width="160" height="160" as="geometry"/>
                </mxCell>
                <mxCell id="161" value="&lt;font style=&quot;font-size: 14px&quot;&gt;&lt;b&gt;Input&lt;/b&gt;&lt;/font&gt;&lt;br&gt;- name: &quot;fileName&quot;" style="ellipse;whiteSpace=wrap;html=1;aspect=fixed;fillColor=#76608a;fontColor=#ffffff;strokeColor=#432D57;" parent="1" vertex="1">
                    <mxGeometry x="40" y="940" width="120" height="120" as="geometry"/>
                </mxCell>
                <mxCell id="163" value="&lt;font style=&quot;font-size: 14px&quot;&gt;&lt;b&gt;NativeCall&lt;/b&gt;&lt;/font&gt;&lt;br&gt;- cypher: &quot;CALL apoc.export.cypher.data(nodes, rels, fileName, {format: 'plain', cypherFormat: 'updateAll'}) YIELD file RETURN true&quot;" style="ellipse;whiteSpace=wrap;html=1;aspect=fixed;fillColor=#6d8764;fontColor=#ffffff;strokeColor=#3A5431;" parent="1" vertex="1">
                    <mxGeometry x="280" y="1160" width="160" height="160" as="geometry"/>
                </mxCell>
                <mxCell id="164" value="&lt;font style=&quot;font-size: 14px&quot;&gt;&lt;b&gt;Input&lt;/b&gt;&lt;/font&gt;&lt;br&gt;- name: &quot;nodes&quot;" style="ellipse;whiteSpace=wrap;html=1;aspect=fixed;fillColor=#76608a;fontColor=#ffffff;strokeColor=#432D57;" parent="1" vertex="1">
                    <mxGeometry x="40" y="1100" width="120" height="120" as="geometry"/>
                </mxCell>
                <mxCell id="166" value="&lt;font style=&quot;font-size: 14px&quot;&gt;&lt;b&gt;Input&lt;/b&gt;&lt;/font&gt;&lt;br&gt;- name: &quot;rels&quot;" style="ellipse;whiteSpace=wrap;html=1;aspect=fixed;fillColor=#76608a;fontColor=#ffffff;strokeColor=#432D57;" parent="1" vertex="1">
                    <mxGeometry x="40" y="1260" width="120" height="120" as="geometry"/>
                </mxCell>
                <mxCell id="168" value="&lt;font style=&quot;font-size: 12px&quot;&gt;HAS_INPUT&lt;/font&gt;" style="edgeStyle=none;html=1;fontSize=14;" parent="1" source="172" target="173" edge="1">
                    <mxGeometry relative="1" as="geometry"/>
                </mxCell>
                <mxCell id="169" value="IMPLEMENTED" style="edgeStyle=none;html=1;" parent="1" source="172" target="174" edge="1">
                    <mxGeometry relative="1" as="geometry"/>
                </mxCell>
                <mxCell id="172" value="&lt;font style=&quot;font-size: 14px&quot;&gt;&lt;b&gt;Function&lt;/b&gt;&lt;/font&gt;&lt;br&gt;- name: &quot;export all to cypher&quot;&lt;br&gt;- uuid: &quot;0ea2ca4b-5522-4bbd-b16a-a8cb25e9a109&quot;" style="ellipse;whiteSpace=wrap;html=1;aspect=fixed;fillColor=#76608a;fontColor=#ffffff;strokeColor=#432D57;" parent="1" vertex="1">
                    <mxGeometry x="280" y="1400" width="160" height="160" as="geometry"/>
                </mxCell>
                <mxCell id="173" value="&lt;font style=&quot;font-size: 14px&quot;&gt;&lt;b&gt;Input&lt;/b&gt;&lt;/font&gt;&lt;br&gt;- name: &quot;fileName&quot;" style="ellipse;whiteSpace=wrap;html=1;aspect=fixed;fillColor=#76608a;fontColor=#ffffff;strokeColor=#432D57;" parent="1" vertex="1">
                    <mxGeometry x="40" y="1420" width="120" height="120" as="geometry"/>
                </mxCell>
                <mxCell id="174" value="&lt;font style=&quot;font-size: 14px&quot;&gt;&lt;b&gt;NativeCall&lt;/b&gt;&lt;/font&gt;&lt;br&gt;- cypher: &quot;CALL apoc.export.cypher.all(fileName, {format: 'plain', cypherFormat: 'updateAll'}) YIELD file RETURN true&quot;" style="ellipse;whiteSpace=wrap;html=1;aspect=fixed;fillColor=#6d8764;fontColor=#ffffff;strokeColor=#3A5431;" parent="1" vertex="1">
                    <mxGeometry x="280" y="1640" width="160" height="160" as="geometry"/>
                </mxCell>
                <mxCell id="177" value="&lt;font style=&quot;font-size: 12px&quot;&gt;HAS_INPUT&lt;/font&gt;" style="edgeStyle=none;html=1;fontSize=14;" parent="1" source="179" target="180" edge="1">
                    <mxGeometry relative="1" as="geometry"/>
                </mxCell>
                <mxCell id="178" value="IMPLEMENTED" style="edgeStyle=none;html=1;" parent="1" source="179" target="181" edge="1">
                    <mxGeometry relative="1" as="geometry"/>
                </mxCell>
                <mxCell id="179" value="&lt;font style=&quot;font-size: 14px&quot;&gt;&lt;b&gt;Function&lt;/b&gt;&lt;/font&gt;&lt;br&gt;- name: &quot;run cypher file&quot;&lt;br&gt;- uuid: &quot;7b098148-d426-4bd5-88ef-61c8457af5ac&quot;" style="ellipse;whiteSpace=wrap;html=1;aspect=fixed;fillColor=#76608a;fontColor=#ffffff;strokeColor=#432D57;" parent="1" vertex="1">
                    <mxGeometry x="280" y="1840" width="160" height="160" as="geometry"/>
                </mxCell>
                <mxCell id="180" value="&lt;font style=&quot;font-size: 14px&quot;&gt;&lt;b&gt;Input&lt;/b&gt;&lt;/font&gt;&lt;br&gt;- name: &quot;fileName&quot;" style="ellipse;whiteSpace=wrap;html=1;aspect=fixed;fillColor=#76608a;fontColor=#ffffff;strokeColor=#432D57;" parent="1" vertex="1">
                    <mxGeometry x="40" y="1860" width="120" height="120" as="geometry"/>
                </mxCell>
                <mxCell id="181" value="&lt;font style=&quot;font-size: 14px&quot;&gt;&lt;b&gt;NativeCall&lt;/b&gt;&lt;/font&gt;&lt;br&gt;- cypher: &quot;CALL apoc.cypher.runFile(fileName) YIELD result RETURN true&quot;" style="ellipse;whiteSpace=wrap;html=1;aspect=fixed;fillColor=#6d8764;fontColor=#ffffff;strokeColor=#3A5431;" parent="1" vertex="1">
                    <mxGeometry x="280" y="2080" width="160" height="160" as="geometry"/>
                </mxCell>
            </root>
        </mxGraphModel>
    </diagram>
</mxfile>